<?xml version="1.0" standalone="no"?>
<!DOCTYPE svg PUBLIC "-//W3C//DTD SVG 20010904//EN"
 "http://www.w3.org/TR/2001/REC-SVG-20010904/DTD/svg10.dtd">
<svg version="1.0" xmlns="http://www.w3.org/2000/svg"
 width="1267.000000pt" height="1267.000000pt" viewBox="0 0 1267.000000 1267.000000"
 preserveAspectRatio="xMidYMid meet">
<metadata>
Created by potrace 1.11, written by Peter Selinger 2001-2013
</metadata>
<g transform="translate(0.000000,1267.000000) scale(0.100000,-0.100000)"
fill="#000000" stroke="none">
<path d="M7282 7752 l3 -258 -26 35 c-37 51 -57 67 -119 95 -101 46 -246 44
-342 -5 -133 -68 -199 -235 -199 -499 0 -272 67 -429 210 -493 66 -30 219 -36
296 -12 60 19 139 82 165 131 15 27 15 26 20 -47 l5 -74 83 -3 82 -3 0 696 0
695 -90 0 -91 0 3 -258z m-147 -251 c54 -24 101 -79 121 -143 22 -70 31 -297
14 -381 -33 -173 -108 -242 -260 -241 -75 0 -113 17 -158 69 -53 60 -67 126
-67 320 0 201 15 270 74 336 60 68 175 85 276 40z"/>
<path d="M1995 7939 c-432 -24 -876 -199 -1230 -485 -461 -373 -714 -857 -715
-1369 0 -379 137 -698 411 -960 440 -418 1193 -529 1870 -275 260 98 542 269
722 439 l39 36 34 -40 c20 -22 60 -70 91 -107 30 -38 59 -68 63 -68 5 0 17 37
28 83 11 45 52 208 92 362 40 154 80 313 90 353 l17 72 -56 0 c-31 0 -167 -9
-301 -19 -135 -11 -292 -23 -350 -26 -141 -8 -192 -15 -188 -25 2 -5 41 -55
87 -111 82 -100 83 -102 63 -118 -11 -9 -44 -37 -73 -62 -145 -125 -392 -263
-589 -329 -399 -133 -811 -119 -1154 39 -410 189 -640 616 -571 1055 47 302
182 560 418 798 260 263 577 423 965 490 162 27 434 30 557 5 63 -14 82 -14
91 -4 21 22 144 207 144 216 0 16 -139 42 -275 51 -71 5 -134 9 -140 8 -5 -1
-68 -5 -140 -9z"/>
<path d="M4696 7908 c-23 -55 -518 -1262 -523 -1276 -4 -10 16 -12 92 -10 l98
3 76 193 76 192 299 -2 298 -3 20 -50 c10 -27 44 -114 75 -192 l56 -143 93 0
c52 0 94 1 94 3 0 2 -119 298 -264 658 l-264 654 -107 3 -106 3 -13 -33z m264
-513 c51 -130 90 -238 88 -241 -3 -2 -111 -3 -241 -2 l-236 3 88 225 c48 124
103 267 121 319 l34 94 27 -81 c15 -45 69 -188 119 -317z"/>
<path d="M5933 7631 c-65 -22 -116 -61 -151 -114 l-27 -41 -9 77 -9 77 -81 0
-81 0 3 -505 2 -505 90 0 89 0 3 353 3 352 28 57 c48 98 146 147 265 132 66
-8 111 -38 137 -89 19 -38 20 -63 23 -422 l3 -383 90 0 89 0 0 348 c0 191 -5
378 -10 415 -20 138 -81 222 -184 252 -69 21 -208 19 -273 -4z"/>
<path d="M7590 7625 c0 -3 90 -230 200 -506 l201 -501 -35 -71 c-68 -140 -132
-189 -246 -191 l-65 -1 -3 -59 c-2 -41 1 -62 10 -67 7 -5 51 -9 98 -9 70 0 95
5 140 26 74 34 138 105 193 212 36 71 457 1145 457 1166 0 4 -41 5 -91 4 l-91
-3 -128 -370 c-70 -203 -134 -385 -142 -404 l-14 -34 -37 109 c-20 60 -88 243
-150 406 l-112 298 -92 0 c-51 0 -93 -2 -93 -5z"/>
<path d="M3680 7214 c-63 -19 -137 -41 -165 -48 -27 -8 -104 -30 -170 -49 -66
-20 -145 -42 -175 -50 -30 -8 -206 -58 -390 -112 -184 -53 -348 -101 -365
-105 -16 -4 -149 -43 -295 -85 -146 -42 -278 -81 -295 -85 -16 -4 -118 -33
-225 -65 -107 -31 -222 -64 -255 -72 -33 -9 -64 -19 -69 -24 -9 -8 -9 -119 0
-128 2 -2 56 6 121 18 187 36 307 58 463 86 80 15 190 35 245 45 55 10 165 31
245 45 80 15 190 35 245 45 207 39 324 60 460 85 77 14 187 34 245 45 196 37
375 69 400 72 22 3 27 11 41 68 9 36 33 127 53 202 20 76 36 140 36 143 0 10
-38 2 -150 -31z"/>
<path d="M3585 6660 c-49 -10 -157 -30 -240 -44 -82 -15 -197 -36 -255 -46
-157 -29 -370 -67 -500 -90 -63 -12 -162 -29 -220 -40 -58 -11 -170 -31 -250
-45 -80 -14 -192 -34 -250 -45 -58 -11 -170 -31 -250 -45 -164 -29 -354 -65
-356 -68 -1 -1 1 -31 4 -66 l5 -63 56 5 c31 4 108 9 171 12 112 6 414 25 1020
65 162 11 376 25 475 30 99 6 268 17 375 25 107 8 198 15 201 15 8 0 9 2 65
223 25 98 44 182 42 187 -2 4 -43 0 -93 -10z"/>
<path d="M8500 5555 l0 -695 90 0 90 0 0 695 0 695 -90 0 -90 0 0 -695z"/>
<path d="M8930 5555 l0 -695 90 0 90 0 0 695 0 695 -90 0 -90 0 0 -695z"/>
<path d="M9360 6170 l0 -80 85 0 85 0 0 80 0 80 -85 0 -85 0 0 -80z"/>
<path d="M4785 6191 c-149 -25 -247 -72 -342 -167 -135 -133 -190 -298 -180
-538 9 -217 61 -352 181 -472 121 -121 266 -174 474 -174 331 0 556 170 633
479 18 73 21 105 17 235 -4 131 -8 162 -32 231 -37 107 -83 181 -159 251 -68
64 -158 113 -252 138 -70 19 -268 29 -340 17z m214 -151 c190 -25 321 -149
367 -347 34 -145 12 -369 -46 -484 -70 -136 -220 -219 -397 -219 -184 0 -320
74 -406 221 -62 106 -87 338 -52 487 46 196 173 313 369 342 72 11 82 11 165
0z"/>
<path d="M6570 6194 c-190 -26 -307 -93 -362 -209 -50 -106 -35 -255 33 -338
72 -87 162 -127 439 -193 289 -69 351 -109 358 -229 4 -80 -24 -138 -91 -182
-62 -41 -137 -57 -272 -57 -121 0 -200 18 -266 60 -46 28 -98 97 -106 138 -6
31 -11 31 -133 5 -56 -12 -60 -22 -34 -85 45 -108 138 -188 268 -231 76 -25
92 -27 271 -27 180 0 194 1 271 27 187 63 275 175 277 353 0 66 -5 91 -25 136
-59 129 -164 186 -475 258 -212 49 -256 65 -310 114 l-48 44 0 73 c0 62 4 79
24 108 66 92 311 127 471 68 63 -23 122 -79 140 -131 6 -20 18 -36 25 -36 12
0 70 10 143 26 28 6 28 17 -2 81 -50 108 -140 177 -268 208 -65 16 -265 27
-328 19z"/>
<path d="M5764 5998 c10 -256 3 -238 86 -238 l68 0 7 203 c4 111 7 204 6 207
0 3 -40 6 -87 8 l-86 3 6 -183z"/>
<path d="M11010 5880 c-74 -15 -170 -70 -206 -117 -30 -39 -71 -139 -62 -149
3 -2 44 -5 92 -6 l87 -3 14 38 c29 83 82 111 210 111 146 0 204 -56 213 -205
l5 -79 -165 0 c-242 0 -333 -23 -416 -103 -57 -56 -82 -125 -82 -226 0 -103
21 -162 79 -222 56 -57 119 -79 231 -79 153 0 252 51 333 172 l25 37 6 -48 c8
-60 41 -111 86 -133 36 -18 137 -24 199 -12 30 6 31 8 31 60 l0 54 -46 0 c-25
0 -54 4 -64 10 -35 19 -40 65 -40 344 0 295 -7 350 -54 425 -59 93 -152 133
-316 137 -63 2 -135 -1 -160 -6z m348 -607 c-8 -172 -124 -291 -292 -300 -124
-7 -186 47 -186 163 0 71 11 108 43 142 52 56 110 69 301 71 l138 1 -4 -77z"/>
<path d="M12190 5881 c-72 -22 -146 -80 -194 -151 -15 -24 -16 -22 -16 58 l0
82 -85 0 -85 0 0 -505 0 -505 89 0 90 0 3 348 c3 340 3 348 27 399 27 62 82
115 137 134 22 7 68 13 104 13 81 0 136 -25 165 -74 19 -33 20 -54 23 -427 l3
-393 90 0 90 0 -3 408 -3 407 -33 68 c-37 75 -77 108 -158 133 -50 15 -201 18
-244 5z"/>
<path d="M7432 5473 c5 -461 7 -474 87 -555 62 -62 128 -82 260 -76 73 3 107
9 142 26 52 25 111 79 140 126 l19 31 0 -51 c0 -28 3 -66 6 -83 l7 -31 78 0
79 0 0 505 0 505 -89 0 -90 0 -3 -352 c-4 -389 -4 -388 -70 -463 -49 -57 -100
-78 -188 -79 -95 0 -138 19 -171 77 l-24 42 -3 388 -3 387 -90 0 -90 0 3 -397z"/>
<path d="M9360 5365 l0 -505 85 0 85 0 0 505 0 505 -85 0 -85 0 0 -505z"/>
<path d="M9685 5803 c14 -38 96 -264 184 -503 l158 -435 104 -3 104 -3 184
493 c102 271 186 499 189 506 3 10 -16 12 -88 10 l-93 -3 -63 -180 c-36 -99
-102 -292 -149 -428 l-84 -248 -21 73 c-12 40 -75 234 -142 431 l-121 357 -93
0 -94 0 25 -67z"/>
</g>
</svg>
